<?xml version="1.0" encoding="UTF-8"?>
<svg width="251px" height="68px" viewBox="0 0 251 68" version="1.1" xmlns="http://www.w3.org/2000/svg" xmlns:xlink="http://www.w3.org/1999/xlink">
    <title>aedify</title>
    <g id="页面-1" stroke="none" stroke-width="1" fill="none" fill-rule="evenodd">
        <g id="aedify" fill-rule="nonzero">
            <path d="M185.400124,14.0011461 C184.006074,14.0011461 182.875974,15.1397711 182.875974,16.5443361 L182.875974,36.3981724 C182.86455,40.4322132 180.033256,43.8993608 176.106615,44.6877974 C172.179973,45.476234 168.245797,43.3675362 166.700367,39.6460985 C165.154937,35.9246609 166.426389,31.6214466 169.740291,29.3575164 C173.054193,27.0935862 177.492481,27.4961247 180.351823,30.3199484 L180.351823,24.1399968 C176.167992,22.1200635 171.248192,22.4039045 167.320556,24.8918177 C163.39292,27.3797309 161.006669,31.7238183 161,36.3981724 C161,43.9102543 167.044156,50 174.5,50 C181.955844,50 188,43.9102543 188,36.3981724 L188,16.5443361 C188.000307,15.8564106 187.724001,15.1977036 187.234124,14.7185078 C186.744248,14.239312 186.082593,13.9805083 185.400124,14.0011461 Z" id="路径" fill="#111111"></path>
            <path d="M196.499972,23 C195.119276,23 194,24.1301008 194,25.5241508 L194,47.4758492 C194,48.8698992 195.119276,50 196.499972,50 C197.880669,50 198.999944,48.8698992 198.999944,47.4758492 L198.999944,25.5409785 C199.004384,24.8686212 198.742956,24.2222621 198.273638,23.7452462 C197.80432,23.2682303 197.165904,23 196.499972,23 Z" id="路径" fill="#111111"></path>
            <path d="M196,14 C194.785173,14.0000609 193.690276,14.7327243 193.226899,15.8556994 C192.763521,16.9786745 193.023146,18.2702524 193.884466,19.126948 C194.745786,19.9836437 196.038749,20.2363198 197.159224,19.7669143 C198.279699,19.2975088 199.00647,18.1986965 199,16.9838933 C199,16.1897322 198.68339,15.4283304 198.120322,14.8682853 C197.557254,14.3082402 196.794156,13.9957622 196,14 Z" id="路径" fill="#111111"></path>
            <path d="M249.592709,23.2557304 C248.340633,22.6540491 246.840088,23.1854355 246.240346,24.4428984 L238.018676,41.6357866 L229.797006,24.4428984 C229.197596,23.1804142 227.69294,22.6451313 226.436262,23.2473107 C225.179584,23.8494902 224.646763,25.3610988 225.246173,26.6235831 L235.219453,47.4874307 L230.48424,57.3636588 C229.875573,58.6191681 230.395261,60.1326614 231.644996,60.7441409 C232.894731,61.3556204 234.401263,60.8335312 235.00993,59.578022 L250.740893,26.6404224 C251.036123,26.0387377 251.080987,25.3437854 250.865592,24.7088307 C250.650198,24.0738761 250.192237,23.5510764 249.592709,23.2557304 Z" id="路径" fill="#111111"></path>
            <path d="M112.4864,15.5167825 C112.018341,14.5868836 111.06506,14 110.022674,14 C108.980288,14 108.027007,14.5868836 107.558949,15.5167825 L92.2489576,46.1047029 C91.6335977,47.4524393 92.1966184,49.0447044 93.5230798,49.7080162 C94.8495411,50.371328 96.4639076,49.8678897 97.1764089,48.5687298 L110.018419,22.9173599 L115.83945,34.5407696 L108.554651,34.5407696 C107.534547,34.4841224 106.566689,34.9952737 106.039549,35.8690608 C105.51241,36.7428478 105.51241,37.8360204 106.039549,38.7098075 C106.566689,39.5835946 107.534547,40.0947459 108.554651,40.0380987 L118.59678,40.0380987 L122.851919,48.5347432 C123.577101,49.7936114 125.157007,50.2735643 126.461578,49.6313061 C127.76615,48.9890479 128.346657,47.4454946 127.78788,46.1047029 L112.4864,15.5167825 Z" id="路径" fill="#111111"></path>
            <path d="M146.264381,23.2868392 C139.992147,21.9762021 133.662509,25.254254 131.114538,31.1327811 C128.566567,37.0113083 130.502213,43.8708103 135.747464,47.5508417 C140.992715,51.2308731 148.102533,50.7176063 152.76465,46.3223495 C153.387712,45.7351457 153.650131,44.8601952 153.453056,44.0270832 C153.25598,43.1939712 152.629351,42.5292674 151.809213,42.2833593 C150.989076,42.0374511 150.100028,42.2476979 149.476966,42.8349017 C147.404185,44.7968207 144.504894,45.6250704 141.708351,45.0541867 C138.669461,44.3917589 136.208809,42.169554 135.24146,39.2139631 L154.600413,39.2139631 C155.901929,39.2098289 156.963621,38.1704819 156.995249,36.8695305 C157.167243,30.3453396 152.652016,24.6301513 146.264381,23.2868392 Z M135.049539,34.3749208 C136.022489,30.5069276 139.500852,27.795449 143.489876,27.795449 C147.478899,27.795449 150.957262,30.5069276 151.930213,34.3749208 L135.049539,34.3749208 Z" id="形状" fill="#111111"></path>
            <path d="M221.106447,14.0041822 L218.712421,14.0041822 C213.376528,14.0133668 209.054643,18.18399 209.049887,23.328536 L209.049887,26.4033229 L205.592809,26.4033229 C204.16084,26.403323 203,27.5225335 203,28.9031497 C203,30.2837659 204.16084,31.4029764 205.592809,31.4029765 L209.049887,31.4029765 L209.049887,47.2102144 C208.99287,48.1878118 209.501408,49.1156171 210.371249,49.6209787 C211.241089,50.1263404 212.329511,50.1263404 213.199351,49.6209787 C214.069192,49.1156171 214.57773,48.1878118 214.520713,47.2102144 L214.520713,31.4363075 L219.265553,31.4363075 C220.697522,31.4363075 221.858362,30.3170969 221.858362,28.9364807 C221.858362,27.5558645 220.697522,26.4366539 219.265553,26.4366539 L214.520713,26.4366539 L214.520713,23.328536 C214.520708,21.0951879 216.396007,19.283412 218.712421,19.2788166 L221.106447,19.2788166 C222.120407,19.333789 223.082722,18.8434875 223.606881,18.0048408 C224.13104,17.1661941 224.13104,16.1168047 223.606881,15.278158 C223.082722,14.4395113 222.120407,13.9492098 221.106447,14.0041822 L221.106447,14.0041822 Z" id="路径" fill="#111111"></path>
            <path d="M18.9240337,13.3341582 C19.8610737,13.5927346 20.843103,13.6419269 21.8010882,13.4782772 C22.9713165,13.2848238 24.1622047,13.6739574 24.9954011,14.522048 L26.8207227,16.3606567 C27.7143041,17.2516388 28.0901097,18.5412287 27.8159576,19.7758397 C27.5503182,20.9884541 27.6347532,22.2520771 28.0593338,23.4181193 C29.1264999,26.5625001 32.307877,28.4628259 35.5665595,27.9023957 C38.825242,27.3419654 41.1966786,24.4866633 41.1625354,21.1646226 C41.1625604,20.6688627 41.104208,20.1748413 40.9886953,19.6928621 C40.7203344,18.4667101 41.1016731,17.1882685 41.9969682,16.3126171 L43.8092518,14.4914773 C44.659081,13.6300254 45.8766467,13.2445118 47.0644087,13.4608082 C48.2195547,13.6775493 49.4114544,13.5779903 50.5151358,13.1725703 C53.9668624,11.9361853 55.8062521,8.15798485 54.6590697,4.66071832 C53.5118873,1.16345179 49.7972853,-0.775064803 46.2904978,0.29346292 C42.7837102,1.36199064 40.7660318,5.04714868 41.7449,8.59570102 C42.105692,9.88722598 41.7432681,11.27384 40.7974711,12.2205116 L39.4241339,13.5961927 C38.5501951,14.512436 37.2585275,14.8946835 36.0299049,14.6006583 C35.4991055,14.4619884 34.9529431,14.3915502 34.4044994,14.3910307 C33.8423006,14.3909985 33.2825806,14.4658946 32.7399799,14.61376 C31.5078889,14.908179 30.212817,14.5242409 29.3370589,13.6049272 L28.1245238,12.3602633 C27.1698995,11.4023826 26.8115954,9.99733052 27.190133,8.69614758 C27.5363252,7.47996144 27.5453417,6.19185 27.216209,4.97089042 C26.5517305,2.54147641 24.590173,0.690051998 22.1357305,0.175659063 C18.5753753,-0.577429905 15.0622696,1.64279014 14.1955722,5.19369718 C13.3288748,8.74460423 15.4209723,12.3463335 18.9240337,13.3341582 Z" id="路径" fill="#5F09FF"></path>
            <path d="M50.5134997,54.8062153 C49.4098244,54.3987092 48.2176006,54.2974385 47.0616947,54.5130095 C45.8733186,54.73368 44.6535768,54.3468056 43.805521,53.480225 L41.9926713,51.6597235 C41.0970966,50.7822747 40.7156388,49.501209 40.9840835,48.2725403 C41.0996323,47.7895718 41.1580029,47.2945364 41.157978,46.797759 C41.1668884,43.4888325 38.8012839,40.6569515 35.5613857,40.0980409 C32.3214875,39.5391304 29.1541646,41.4165335 28.0680728,44.5396369 C27.6408375,45.7120861 27.5563514,46.9832299 27.8246205,48.202521 C28.0929883,49.4362513 27.7157451,50.722435 26.8247274,51.6115852 L24.9988356,53.4539678 C24.165379,54.3037991 22.9741188,54.6937313 21.803525,54.4998809 C20.8453777,54.3335934 19.8625406,54.3829119 18.9255717,54.6442957 C15.4214161,55.634148 13.3286651,59.2432699 14.1956333,62.8014654 C15.0626014,66.3596608 18.5768045,68.5844379 22.1382718,67.8298032 C24.5864386,67.3037262 26.5385238,65.4467324 27.1986005,63.015977 C27.5278359,61.7925114 27.5188166,60.501756 27.1725163,59.2830736 C26.8113641,57.98462 27.1774094,56.5911187 28.1289358,55.6420706 L29.3679338,54.3904758 C30.2443964,53.4700663 31.5401967,53.0869099 32.7719178,53.3839485 C33.314688,53.5321174 33.8745828,53.6071673 34.4369572,53.6071349 C34.985898,53.6073253 35.5325056,53.5352357 36.0628704,53.3927009 C37.280486,53.1062999 38.5582477,53.4813839 39.4320755,54.3817233 L40.8014943,55.7602281 C41.7484176,56.7083613 42.1110825,58.0983112 41.7492191,59.3924788 C40.7705612,62.9470271 42.7890797,66.6381119 46.2960974,67.7069499 C49.8031152,68.7757879 53.5165277,66.8316306 54.6608636,63.3275761 C55.8051995,59.8235217 53.9621095,56.0405913 50.5091523,54.8062153 L50.5134997,54.8062153 Z" id="路径" fill="#5F09FF"></path>
            <path d="M13.5113783,47.1881358 C13.3175108,46.0182463 13.7074773,44.8277027 14.5573831,43.9947476 L16.3999272,42.1656096 C17.2932493,41.2729066 18.584494,40.8958919 19.8224201,41.1663181 C21.0372914,41.4363119 22.30489,41.3518167 23.4724957,40.9230123 C26.5891265,39.833112 28.4602071,36.6713549 27.9018911,33.4382078 C27.343575,30.2050606 24.518527,27.8424967 21.2141756,27.8453274 C20.7176526,27.8460332 20.2228264,27.9028813 19.7392649,28.0147725 C18.5111611,28.2867516 17.2288433,27.9068289 16.3517848,27.0111362 L14.526747,25.1993772 C13.6634513,24.349794 13.2771125,23.1325808 13.4938719,21.9451626 C13.7110769,20.790351 13.6113048,19.5987962 13.205017,18.4954344 C11.9717347,15.040346 8.18537617,13.1947088 4.67733496,14.3386683 C1.16929375,15.4826278 -0.777065323,19.1976833 0.293721736,22.7057608 C1.36450879,26.2138383 5.06071044,28.2315598 8.61835135,27.2500972 C9.91027119,26.8861005 11.2994878,27.2433395 12.2509205,28.1842176 L13.6295462,29.5528125 C14.5547095,30.4295572 14.9384292,31.7296805 14.6361617,32.963438 C14.3473386,34.0410156 14.3473386,35.1748329 14.6361617,36.2524105 C14.9312108,37.484145 14.5464509,38.778842 13.6251696,39.6543465 L12.3778416,40.8925991 C11.4179106,41.8469471 10.0098511,42.2051475 8.70588314,41.8267194 C7.48774438,41.4761647 6.19563813,41.4671422 4.97265241,41.800651 C2.54671293,42.4669701 0.697958555,44.4212745 0.180287048,46.8666246 C-0.57441384,50.4259491 1.65055839,53.9380379 5.20906583,54.8044845 C8.76757327,55.670931 12.3770117,53.5794391 13.3669508,50.0773917 C13.6280182,49.1364861 13.6773266,48.1500775 13.5113783,47.1881358 Z" id="路径" fill="#5F09FF"></path>
            <path d="M67.8255142,46.9061564 C67.2992814,44.4568613 65.4417375,42.5038765 63.010262,41.8434955 C61.7870213,41.5096322 60.4946456,41.5186643 59.2762528,41.8695917 C57.9789986,42.2331124 56.5853312,41.8702919 55.6341711,40.9214301 L54.3822055,39.6818611 C53.4615234,38.8049946 53.0782535,37.508597 53.3753801,36.2763082 C53.5230398,35.7331775 53.5981021,35.1730979 53.5986327,34.6105014 C53.5994299,34.0612685 53.5273087,33.5143305 53.3841351,32.9838389 C53.0923494,31.7535378 53.4769313,30.4616423 54.395338,29.5869848 L55.7523637,28.2038867 C56.7007778,27.256527 58.0911394,26.8936949 59.3856903,27.2557251 C62.9427855,28.2377071 66.6381146,26.2176245 67.7072347,22.7066831 C68.7763549,19.1957417 66.8279231,15.4790939 63.3195439,14.337131 C59.8111647,13.195168 56.0270526,15.0458963 54.7980682,18.5048026 C54.3925451,19.6094483 54.2912925,20.8016549 54.5047756,21.9581985 C54.7255115,23.1471224 54.3385224,24.3674263 53.4716851,25.2158729 L51.6506443,27.0295581 C50.7734029,27.9262031 49.4908177,28.3065297 48.2624577,28.0342614 C47.7787954,27.9222513 47.283866,27.8653428 46.7872395,27.8646362 C43.482199,27.8618025 40.6565618,30.2268782 40.0981294,33.4634628 C39.5396969,36.7000474 41.4111677,39.865166 44.5284485,40.956225 C45.6962976,41.3854853 46.9641606,41.4700704 48.1792852,41.1997895 C49.4174695,40.9290758 50.7089834,41.3064913 51.6024917,42.2001434 L53.4454201,44.0312261 C54.2955031,44.8650668 54.6855509,46.0568761 54.4916431,47.2280094 C54.3253063,48.1865984 54.3746394,49.1698884 54.6361006,50.1072891 C55.6406998,53.5917343 59.2356337,55.6659246 62.7794721,54.8058184 C66.3233104,53.9457121 68.5509122,50.4583651 67.8255142,46.9061564 L67.8255142,46.9061564 Z" id="路径" fill="#5F09FF"></path>
        </g>
    </g>
</svg>